<?xml version="1.0" encoding="UTF-8" standalone="no"?>
<!-- Created with Inkscape (http://www.inkscape.org/) -->

<svg
   width="600mm"
   height="300mm"
   viewBox="0 0 600 300"
   version="1.1"
   id="svg1"
   inkscape:version="1.4.2 (ebf0e940, 2025-05-08)"
   sodipodi:docname="sue-router-rack.svg"
   xmlns:inkscape="http://www.inkscape.org/namespaces/inkscape"
   xmlns:sodipodi="http://sodipodi.sourceforge.net/DTD/sodipodi-0.dtd"
   xmlns="http://www.w3.org/2000/svg"
   xmlns:svg="http://www.w3.org/2000/svg">
  <sodipodi:namedview
     id="namedview1"
     pagecolor="#ffffff"
     bordercolor="#000000"
     borderopacity="0.25"
     inkscape:showpageshadow="2"
     inkscape:pageopacity="0.0"
     inkscape:pagecheckerboard="0"
     inkscape:deskcolor="#d1d1d1"
     inkscape:document-units="mm"
     inkscape:zoom="0.70710678"
     inkscape:cx="1067.0241"
     inkscape:cy="426.38539"
     inkscape:window-width="1512"
     inkscape:window-height="921"
     inkscape:window-x="0"
     inkscape:window-y="33"
     inkscape:window-maximized="0"
     inkscape:current-layer="layer1" />
  <defs
     id="defs1" />
  <g
     inkscape:label="Layer 1"
     inkscape:groupmode="layer"
     id="layer1">
    <path
       id="rect20"
       style="vector-effect:non-scaling-stroke;fill:none;stroke:#ff0000;stroke-width:0.264583;stroke-dasharray:none;-inkscape-stroke:hairline"
       d="m 315,0 v 150.00015 2.99981 h 14.9996 v -2.99981 h 20.00033 v 2.99981 h 15.00012 v -2.99981 -25.00003 h -0.99219 c -4.99044,0 -9.00823,-4.01779 -9.00823,-9.00823 V 34.00826 c 0,-4.990448 4.01779,-9.008236 9.00823,-9.008236 h 0.99219 V 0 Z m 1.99988,30.000236 h 2.79983 v 29.999719 h -2.79983 z m 0,59.999955 h 2.79983 v 29.999719 h -2.79983 z" />
    <path
       id="rect26"
       style="vector-effect:non-scaling-stroke;fill:none;stroke:#ff0000;stroke-width:0.264583;stroke-dasharray:none;-inkscape-stroke:hairline"
       d="M 372.99982,0 V 29.800248 H 370 v 30.399695 h 2.99982 v 9.799919 h 5.00021 v 9.999906 h -5.00021 v 9.800435 H 370 V 120.1999 h 2.99982 v 29.80025 H 383 v 2.99981 h 20 v -2.99981 h 14.99966 v -25.00003 h -0.99167 c -4.99045,0 -9.00824,-4.01779 -9.00824,-9.00823 V 34.00826 c 0,-4.990448 4.01779,-9.008236 9.00824,-9.008236 h 0.99167 V 0 Z"
       sodipodi:nodetypes="ccccccccccccccccccccssssccc" />
    <g
       id="g47"
       transform="translate(-96.999764)">
      <path
         id="rect4"
         style="vector-effect:non-scaling-stroke;fill:none;stroke:#ff0000;stroke-width:0.264583;stroke-dasharray:none;-inkscape-stroke:hairline"
         d="m 100.0001,160.00005 v 14.80013 h -3.000336 v 20.39979 h 3.000336 v 14.80013 h 25.00002 v -0.99219 c 0,-4.99044 4.01727,-9.00771 9.00772,-9.00771 h 81.98414 c 4.99045,0 9.00824,4.01727 9.00824,9.00771 v 0.99219 h 49.99953 v -0.99219 c 0,-4.99044 4.01779,-9.00771 9.00824,-9.00771 h 81.98414 c 4.99045,0 9.00772,4.01727 9.00772,9.00771 v 0.99219 h 25.00002 v -14.80013 h 3.00034 v -20.39979 h -3.00034 v -14.80013 z m 29.99972,1.99988 h 30.00023 v 2.79983 h -30.00023 z m 59.99995,0 h 30.00024 v 2.79983 h -30.00024 z m 90.00019,0 h 30.00024 v 2.79983 h -30.00024 z m 59.99996,0 h 30.00023 v 2.79983 h -30.00023 z m -91.40011,12.80025 h 2.80035 v 20.39979 h -2.80035 z m 69.65002,3.04995 h 13.49995 v 14.2999 h -13.49995 z" />
      <text
         xml:space="preserve"
         style="font-style:normal;font-variant:normal;font-weight:normal;font-stretch:normal;font-size:3.52778px;font-family:sans-serif;-inkscape-font-specification:'sans-serif, Normal';font-variant-ligatures:normal;font-variant-caps:normal;font-variant-numeric:normal;font-variant-east-asian:normal;writing-mode:lr-tb;direction:ltr;vector-effect:non-scaling-stroke;fill:#00ff00;stroke:#00ff00;stroke-width:0.264583;-inkscape-stroke:hairline"
         x="337.80515"
         y="181.87186"
         id="text41"><tspan
           sodipodi:role="line"
           id="tspan41"
           style="font-style:normal;font-variant:normal;font-weight:normal;font-stretch:normal;font-size:3.52778px;font-family:sans-serif;-inkscape-font-specification:'sans-serif, Normal';font-variant-ligatures:normal;font-variant-caps:normal;font-variant-numeric:normal;font-variant-east-asian:normal;fill:#00ff00;stroke:#00ff00;stroke-width:0.264583"
           x="337.80515"
           y="181.87186">5V 500mA</tspan><tspan
           sodipodi:role="line"
           style="font-style:normal;font-variant:normal;font-weight:normal;font-stretch:normal;font-size:3.52778px;font-family:sans-serif;-inkscape-font-specification:'sans-serif, Normal';font-variant-ligatures:normal;font-variant-caps:normal;font-variant-numeric:normal;font-variant-east-asian:normal;fill:#00ff00;stroke:#00ff00;stroke-width:0.264583"
           x="337.80515"
           y="186.28159"
           id="tspan1"></tspan><tspan
           sodipodi:role="line"
           style="font-style:normal;font-variant:normal;font-weight:normal;font-stretch:normal;font-size:3.52778px;font-family:sans-serif;-inkscape-font-specification:'sans-serif, Normal';font-variant-ligatures:normal;font-variant-caps:normal;font-variant-numeric:normal;font-variant-east-asian:normal;fill:#00ff00;stroke:#00ff00;stroke-width:0.264583"
           x="337.80515"
           y="190.6913"
           id="tspan2">5V 500mA</tspan></text>
    </g>
    <path
       id="rect1"
       style="vector-effect:non-scaling-stroke;fill:none;stroke:#ff0000;stroke-width:0.264583;stroke-dasharray:none;-inkscape-stroke:hairline"
       d="m 303.00011,154.32288 v -29.80025 h 3.00033 V 94.122937 h -3.00033 v -29.60026 h 3.00033 v -30.39969 h -3.00033 V 4.3227367 h -29.79974 v -2.99982 h -30.40021 v 2.99982 h -29.59974 v -2.99982 h -30.40021 v 2.99982 h -59.59998 v -2.99982 H 92.80002 v 2.99982 H 63.20028 v -2.99982 H 32.80006 v 2.99982 H 3.00033 V 34.122987 H 0 v 30.39969 h 3.00033 v 29.60026 H 0 v 30.399693 h 3.00033 v 29.80025 h 9.99991 V 14.322637 H 143.00006 V 154.32288 h 20.00033 V 14.322637 H 293.0002 V 154.32288 Z M 154.40039,124.52263 h -2.80034 V 94.122937 h 2.80034 z m 0,-59.999953 h -2.80034 v -30.39969 h 2.80034 z" />
    <path
       id="path47"
       style="vector-effect:non-scaling-stroke;fill:none;stroke:#ff0000;stroke-width:0.264583;stroke-dasharray:none;-inkscape-stroke:hairline"
       d="m 435,0 v 150.00015 2.99981 h 14.9996 v -2.99981 h 20.00033 v 2.99981 h 15.00012 v -2.99981 -25.00003 h -0.99219 c -4.99044,0 -9.00823,-4.01779 -9.00823,-9.00823 V 34.00826 c 0,-4.990448 4.01779,-9.008236 9.00823,-9.008236 h 0.99219 V 0 Z m 1.99988,30.000236 h 2.79983 v 29.999719 h -2.79983 z m 0,59.999955 h 2.79983 v 29.999719 h -2.79983 z" />
  </g>
</svg>
