<?xml version="1.0" encoding="UTF-8" standalone="no"?>
<!-- Created with Inkscape (http://www.inkscape.org/) -->

<svg
   width="300mm"
   height="300mm"
   viewBox="0 0 300 300"
   version="1.1"
   id="svg1"
   inkscape:version="1.4.2 (ebf0e940, 2025-05-08)"
   sodipodi:docname="test-cut.svg"
   xmlns:inkscape="http://www.inkscape.org/namespaces/inkscape"
   xmlns:sodipodi="http://sodipodi.sourceforge.net/DTD/sodipodi-0.dtd"
   xmlns="http://www.w3.org/2000/svg"
   xmlns:svg="http://www.w3.org/2000/svg"
   xmlns:rdf="http://www.w3.org/1999/02/22-rdf-syntax-ns#"
   xmlns:cc="http://creativecommons.org/ns#"
   xmlns:dc="http://purl.org/dc/elements/1.1/">
  <sodipodi:namedview
     id="namedview1"
     pagecolor="#ffffff"
     bordercolor="#000000"
     borderopacity="0.25"
     inkscape:showpageshadow="2"
     inkscape:pageopacity="0.0"
     inkscape:pagecheckerboard="0"
     inkscape:deskcolor="#d1d1d1"
     inkscape:document-units="mm"
     inkscape:zoom="0.4549968"
     inkscape:cx="427.47553"
     inkscape:cy="457.14607"
     inkscape:window-width="1512"
     inkscape:window-height="920"
     inkscape:window-x="0"
     inkscape:window-y="34"
     inkscape:window-maximized="0"
     inkscape:current-layer="layer1"
     showguides="true">
    <sodipodi:guide
       position="3,300"
       orientation="-1,0"
       id="guide7"
       inkscape:locked="false"
       inkscape:label=""
       inkscape:color="rgb(0,134,229)" />
    <sodipodi:guide
       position="-54.785403,297"
       orientation="0,1"
       id="guide8"
       inkscape:locked="false"
       inkscape:label=""
       inkscape:color="rgb(0,134,229)" />
    <sodipodi:guide
       position="165,300"
       orientation="-1,0"
       id="guide9"
       inkscape:locked="false"
       inkscape:label=""
       inkscape:color="rgb(0,134,229)" />
    <sodipodi:guide
       position="-50.219953,207"
       orientation="0,1"
       id="guide10"
       inkscape:locked="false"
       inkscape:label=""
       inkscape:color="rgb(0,134,229)" />
  </sodipodi:namedview>
  <defs
     id="defs1" />
  <g
     inkscape:label="Layer 1"
     inkscape:groupmode="layer"
     id="layer1">
    <path
       id="rect27"
       style="vector-effect:non-scaling-stroke;fill:none;stroke:#ff0000;stroke-width:0.264583;-inkscape-stroke:hairline"
       d="M 192.80012,0 V 2.9998169 H 175.00017 V 20.799764 h -3.00033 v 18.400427 h 3.00033 v 17.59996 h -3.00033 v 18.39991 h 3.00033 v 17.799947 h 17.79995 v 2.999817 h 18.39991 v -2.999817 h 17.59996 v 2.999817 h 18.39991 v -2.999817 h 17.79995 V 2.9998169 H 247.1999 V 0 H 228.79999 V 2.9998169 H 211.20003 V 0 Z m 48.36759,30.000236 h 5.66425 c 3.41696,0 6.1681,2.75062 6.1681,6.167582 v 23.664189 c 0,3.416962 -2.75114,6.168099 -6.1681,6.168099 h -5.66425 c -3.41696,0 -6.16758,-2.751137 -6.16758,-6.168099 V 36.167818 c 0,-3.416962 2.75062,-6.167582 6.16758,-6.167582 z"
       sodipodi:nodetypes="cccccccccccccccccccccccccccccsssssssss" />
    <path
       id="rect10"
       style="vector-effect:non-scaling-stroke;fill:none;stroke:#ff0000;stroke-width:0.264583;-inkscape-stroke:hairline"
       d="M 0,0 V 20.999752 H 2.9998169 V 39.000203 H 0 V 57.000138 H 2.9998169 V 75.000073 H 0 v 20.999752 h 20.999752 v -2.999817 h 18.000451 v 2.999817 h 17.999935 v -2.999817 h 17.999935 v 2.999817 h 17.999935 v -2.999817 h 17.999932 v 2.999817 h 17.99994 v -2.999817 h 17.99993 v 2.999817 l 21.00019,0 8e-5,-20.999752 h -3.00033 V 57.000138 h 3.00033 V 39.000203 h -3.00033 V 20.999752 h 3.00033 L 168.00008,0 H 146.99981 V 2.9998169 H 128.99988 V 0 H 110.99994 V 2.9998169 H 93.000008 V 0 H 75.000073 V 2.9998169 H 57.000138 V 0 H 39.000203 V 2.9998169 H 20.999752 V 0 Z"
       sodipodi:nodetypes="ccccccccccccccccccccccccccccccccccccccccccccccccccccc" />
    <g
       id="g72"
       transform="translate(0,-2.9997787)">
      <path
         id="rect56"
         style="vector-effect:non-scaling-stroke;fill:none;stroke:#ff0000;stroke-width:0.264583;-inkscape-stroke:hairline"
         d="m 0,104.99979 v 18.00045 h 2.9998169 v 17.99994 H 0 v 17.99993 h 2.9998169 v 17.99994 H 0 v 17.99993 H 2.9998169 20.799764 v 2.99982 h 18.400427 v -2.99982 h 17.59996 v 2.99982 h 18.39991 v -2.99982 H 92.80002 v 2.99982 h 18.39991 v -2.99982 h 17.59996 v 2.99982 h 18.39991 v -2.99982 h 17.79995 3.00033 v -17.99993 h -3.00033 v -17.99994 h 3.00033 v -17.99993 h -3.00033 v -17.99994 h 3.00033 v -18.00045 z"
         sodipodi:nodetypes="ccccccccccccccccccccccccccccccccccccccc" />
      <path
         d="m 149.91511,144.74998 c -1.34928,-7.32662 -24.48763,-11.18268 -49.74627,-8.29039 -18.894804,2.12128 -25.257653,5.59183 -25.257653,5.59183 -0.192754,0.19276 -0.192754,0.19276 -0.192754,0.38551 0,0.19276 0.192754,0.19276 0.578262,0.19276 l 2.506786,-0.57827 c 4.434323,-0.96475 8.868646,-1.92852 18.317531,-2.69954 25.258638,-2.12128 37.019578,1.92853 37.791578,6.94112 0.57728,4.43432 -8.29236,10.79717 -29.30844,14.65521 -7.133863,1.15652 -8.483138,-1.35027 -9.832414,-4.04981 -0.96377,-2.12128 -1.928525,-4.0498 -5.400068,-4.62806 -8.290386,-0.96377 -18.316543,2.50678 -25.64316,5.20632 -2.506786,0.77102 -4.628065,1.54302 -6.362848,1.92853 -1.734783,0.3855 -2.892294,0.3855 -3.277801,0 -0.578261,-0.77102 0.192754,-2.12128 0.771015,-3.66331 0.771014,-2.31403 1.734783,-4.62807 0.771014,-6.36285 -0.771014,-1.15652 -2.314032,-1.92754 -5.013572,-2.12128 -9.255146,-0.57826 -32.006996,9.64065 -32.585256,10.41167 v 0.19275 c 0.38551,0.38551 3.85606,0.38551 4.62708,0.19275 4.62806,-1.54301 12.91845,-4.24256 16.389,-4.43432 0.96476,0 1.73577,0.19276 2.12128,0.57826 0.57826,0.77102 0.3865,1.92853 0.19275,3.08505 -0.19275,1.54203 -0.57826,3.2778 0.57826,4.43432 0.96476,1.15652 2.8923,1.54302 5.977346,1.54302 5.591833,-0.19275 11.569175,-1.92853 16.967266,-3.47154 4.820819,-1.34928 9.255142,-2.69855 12.725697,-2.69855 2.121279,0 3.277801,0.96475 4.628065,2.31403 3.470556,3.27681 8.675894,8.29137 34.320036,2.31403 22.5591,-5.40007 34.32103,-11.37741 33.35727,-16.96924 z"
         style="fill:none;stroke:#000080;stroke-width:0.988479"
         id="path1" />
    </g>
    <path
       id="path74"
       style="vector-effect:non-scaling-stroke;fill:none;stroke:#ff0000;stroke-width:0.264583;-inkscape-stroke:hairline"
       d="m 192.80012,100 v 2.99982 h -17.79995 v 17.79995 h -3.00033 v 18.40042 h 3.00033 v 17.59996 h -3.00033 v 18.39991 h 3.00033 v 17.79995 h 17.79995 v 2.99982 h 18.39991 v -2.99982 h 17.59996 v 2.99982 h 18.39991 v -2.99982 h 17.79995 V 102.99982 H 247.1999 V 100 h -18.39991 v 2.99982 H 211.20003 V 100 Z m 48.36759,30.00024 h 5.66425 c 3.41696,0 6.1681,2.75062 6.1681,6.16758 v 23.66419 c 0,3.41696 -2.75114,6.1681 -6.1681,6.1681 h -5.66425 c -3.41696,0 -6.16758,-2.75114 -6.16758,-6.1681 v -23.66419 c 0,-3.41696 2.75062,-6.16758 6.16758,-6.16758 z"
       sodipodi:nodetypes="cccccccccccccccccccccccccccccsssssssss" />
    <g
       id="g76"
       transform="translate(0,95.00021)">
      <path
         id="path75"
         style="vector-effect:non-scaling-stroke;fill:none;stroke:#ff0000;stroke-width:0.264583;-inkscape-stroke:hairline"
         d="m 0,104.99979 v 18.00045 h 2.9998169 v 17.99994 H 0 v 17.99993 h 2.9998169 v 17.99994 H 0 v 17.99993 H 2.9998169 20.799764 v 2.99982 h 18.400427 v -2.99982 h 17.59996 v 2.99982 h 18.39991 v -2.99982 H 92.80002 v 2.99982 h 18.39991 v -2.99982 h 17.59996 v 2.99982 h 18.39991 v -2.99982 h 17.79995 3.00033 v -17.99993 h -3.00033 v -17.99994 h 3.00033 v -17.99993 h -3.00033 v -17.99994 h 3.00033 v -18.00045 z"
         sodipodi:nodetypes="ccccccccccccccccccccccccccccccccccccccc" />
      <path
         d="m 149.91511,144.74998 c -1.34928,-7.32662 -24.48763,-11.18268 -49.74627,-8.29039 -18.894804,2.12128 -25.257653,5.59183 -25.257653,5.59183 -0.192754,0.19276 -0.192754,0.19276 -0.192754,0.38551 0,0.19276 0.192754,0.19276 0.578262,0.19276 l 2.506786,-0.57827 c 4.434323,-0.96475 8.868646,-1.92852 18.317531,-2.69954 25.258638,-2.12128 37.019578,1.92853 37.791578,6.94112 0.57728,4.43432 -8.29236,10.79717 -29.30844,14.65521 -7.133863,1.15652 -8.483138,-1.35027 -9.832414,-4.04981 -0.96377,-2.12128 -1.928525,-4.0498 -5.400068,-4.62806 -8.290386,-0.96377 -18.316543,2.50678 -25.64316,5.20632 -2.506786,0.77102 -4.628065,1.54302 -6.362848,1.92853 -1.734783,0.3855 -2.892294,0.3855 -3.277801,0 -0.578261,-0.77102 0.192754,-2.12128 0.771015,-3.66331 0.771014,-2.31403 1.734783,-4.62807 0.771014,-6.36285 -0.771014,-1.15652 -2.314032,-1.92754 -5.013572,-2.12128 -9.255146,-0.57826 -32.006996,9.64065 -32.585256,10.41167 v 0.19275 c 0.38551,0.38551 3.85606,0.38551 4.62708,0.19275 4.62806,-1.54301 12.91845,-4.24256 16.389,-4.43432 0.96476,0 1.73577,0.19276 2.12128,0.57826 0.57826,0.77102 0.3865,1.92853 0.19275,3.08505 -0.19275,1.54203 -0.57826,3.2778 0.57826,4.43432 0.96476,1.15652 2.8923,1.54302 5.977346,1.54302 5.591833,-0.19275 11.569175,-1.92853 16.967266,-3.47154 4.820819,-1.34928 9.255142,-2.69855 12.725697,-2.69855 2.121279,0 3.277801,0.96475 4.628065,2.31403 3.470556,3.27681 8.675894,8.29137 34.320036,2.31403 22.5591,-5.40007 34.32103,-11.37741 33.35727,-16.96924 z"
         style="fill:none;stroke:#000080;stroke-width:0.988479"
         id="path76" />
    </g>
  </g>
  <metadata
     id="metadata7">
    <rdf:RDF>
      <cc:Work
         rdf:about="">
        <dc:description>Plywood thickness: ~2.7mm; tab/slot overlap: 0.4mm.
The bottom piece's tabs and slots are all 18mm. Tabs of all 4 sides grow 0.2mm on either side. I.e. middle tabs are 18.4mm wide. End tabs are 18.2mm.</dc:description>
      </cc:Work>
    </rdf:RDF>
  </metadata>
</svg>
